grf
version=1
nRows=16
nColumns=46
inDegrees=yes
endheader
time	ground_force_1_vx	ground_force_1_vy	ground_force_1_vz	ground_force_1_px	ground_force_1_py	ground_force_1_pz	ground_moment_1_mx	ground_moment_1_my	ground_moment_1_mz	ground_force_2_vx	ground_force_2_vy	ground_force_2_vz	ground_force_2_px	ground_force_2_py	ground_force_2_pz	ground_moment_2_mx	ground_moment_2_my	ground_moment_2_mz	ground_force_3_vx	ground_force_3_vy	ground_force_3_vz	ground_force_3_px	ground_force_3_py	ground_force_3_pz	ground_moment_3_mx	ground_moment_3_my	ground_moment_3_mz	ground_force_4_vx	ground_force_4_vy	ground_force_4_vz	ground_force_4_px	ground_force_4_py	ground_force_4_pz	ground_moment_4_mx	ground_moment_4_my	ground_moment_4_mz	ground_force_5_vx	ground_force_5_vy	ground_force_5_vz	ground_force_5_px	ground_force_5_py	ground_force_5_pz	ground_moment_5_mx	ground_moment_5_my	ground_moment_5_mz
8.940000	0.000000	0.000000	0.000000	0.000000	0.000000	0.000000	0.000000	0.000000	0.000000	0.000000	0.000000	0.000000	0.000000	0.000000	0.000000	0.000000	0.000000	0.000000	0.000000	0.000000	0.000000	0.000000	0.000000	0.000000	0.000000	0.000000	0.000000	6.516122	532.914976	-15.790499	0.194888	0.000000	-1.083469	0.000000	3.836038	0.000000	1.149707	526.336821	13.127436	0.213816	0.000000	-1.390421	0.000000	-3.285900	-0.000000
8.940500	0.000000	0.000000	0.000000	0.000000	0.000000	0.000000	0.000000	0.000000	0.000000	0.000000	0.000000	0.000000	0.000000	0.000000	0.000000	0.000000	0.000000	0.000000	0.000000	0.000000	0.000000	0.000000	0.000000	0.000000	0.000000	0.000000	0.000000	6.503230	533.141208	-15.817341	0.194881	0.000000	-1.083475	0.000000	3.835062	0.000000	1.146003	526.420580	13.136037	0.213806	0.000000	-1.390414	0.000000	-3.284058	-0.000000
8.941000	0.000000	0.000000	0.000000	0.000000	0.000000	0.000000	0.000000	0.000000	0.000000	0.000000	0.000000	0.000000	0.000000	0.000000	0.000000	0.000000	0.000000	0.000000	0.000000	0.000000	0.000000	0.000000	0.000000	0.000000	0.000000	0.000000	0.000000	6.489676	533.368932	-15.844326	0.194874	0.000000	-1.083481	0.000000	3.834089	0.000000	1.142213	526.503166	13.144790	0.213795	0.000000	-1.390407	0.000000	-3.282119	-0.000000
8.941500	0.000000	0.000000	0.000000	0.000000	0.000000	0.000000	0.000000	0.000000	0.000000	0.000000	0.000000	0.000000	0.000000	0.000000	0.000000	0.000000	0.000000	0.000000	0.000000	0.000000	0.000000	0.000000	0.000000	0.000000	0.000000	0.000000	0.000000	6.475490	533.597988	-15.871418	0.194868	0.000000	-1.083486	0.000000	3.833115	0.000000	1.138338	526.584537	13.153702	0.213785	0.000000	-1.390400	0.000000	-3.280083	-0.000000
8.942000	0.000000	0.000000	0.000000	0.000000	0.000000	0.000000	0.000000	0.000000	0.000000	0.000000	0.000000	0.000000	0.000000	0.000000	0.000000	0.000000	0.000000	0.000000	0.000000	0.000000	0.000000	0.000000	0.000000	0.000000	0.000000	0.000000	0.000000	6.460706	533.828220	-15.898585	0.194861	0.000000	-1.083491	0.000000	3.832137	0.000000	1.134387	526.664666	13.162777	0.213774	0.000000	-1.390393	0.000000	-3.277948	-0.000000
8.942500	0.000000	0.000000	0.000000	0.000000	0.000000	0.000000	0.000000	0.000000	0.000000	0.000000	0.000000	0.000000	0.000000	0.000000	0.000000	0.000000	0.000000	0.000000	0.000000	0.000000	0.000000	0.000000	0.000000	0.000000	0.000000	0.000000	0.000000	6.445365	534.059478	-15.925797	0.194854	0.000000	-1.083495	0.000000	3.831151	0.000000	1.130370	526.743548	13.172019	0.213764	0.000000	-1.390386	0.000000	-3.275715	-0.000000
8.943000	0.000000	0.000000	0.000000	0.000000	0.000000	0.000000	0.000000	0.000000	0.000000	0.000000	0.000000	0.000000	0.000000	0.000000	0.000000	0.000000	0.000000	0.000000	0.000000	0.000000	0.000000	0.000000	0.000000	0.000000	0.000000	0.000000	0.000000	6.429508	534.291601	-15.953025	0.194847	0.000000	-1.083499	0.000000	3.830153	0.000000	1.126303	526.821187	13.181427	0.213754	0.000000	-1.390380	0.000000	-3.273388	-0.000000
8.943500	0.000000	0.000000	0.000000	0.000000	0.000000	0.000000	0.000000	0.000000	0.000000	0.000000	0.000000	0.000000	0.000000	0.000000	0.000000	0.000000	0.000000	0.000000	0.000000	0.000000	0.000000	0.000000	0.000000	0.000000	0.000000	0.000000	0.000000	6.413181	534.524415	-15.980238	0.194840	0.000000	-1.083503	0.000000	3.829138	0.000000	1.122206	526.897586	13.190994	0.213744	0.000000	-1.390373	0.000000	-3.270968	-0.000000
8.944000	0.000000	0.000000	0.000000	0.000000	0.000000	0.000000	0.000000	0.000000	0.000000	0.000000	0.000000	0.000000	0.000000	0.000000	0.000000	0.000000	0.000000	0.000000	0.000000	0.000000	0.000000	0.000000	0.000000	0.000000	0.000000	0.000000	0.000000	6.396436	534.757724	-16.007403	0.194833	0.000000	-1.083506	0.000000	3.828105	0.000000	1.118098	526.972734	13.200713	0.213734	0.000000	-1.390367	0.000000	-3.268461	-0.000000
8.944500	0.000000	0.000000	0.000000	0.000000	0.000000	0.000000	0.000000	0.000000	0.000000	0.000000	0.000000	0.000000	0.000000	0.000000	0.000000	0.000000	0.000000	0.000000	0.000000	0.000000	0.000000	0.000000	0.000000	0.000000	0.000000	0.000000	0.000000	6.379324	534.991330	-16.034479	0.194826	0.000000	-1.083508	0.000000	3.827051	0.000000	1.113999	527.046615	13.210571	0.213724	0.000000	-1.390360	0.000000	-3.265872	-0.000000
8.945000	0.000000	0.000000	0.000000	0.000000	0.000000	0.000000	0.000000	0.000000	0.000000	0.000000	0.000000	0.000000	0.000000	0.000000	0.000000	0.000000	0.000000	0.000000	0.000000	0.000000	0.000000	0.000000	0.000000	0.000000	0.000000	0.000000	0.000000	6.361906	535.225037	-16.061427	0.194819	0.000000	-1.083511	0.000000	3.825975	0.000000	1.109929	527.119201	13.220558	0.213714	0.000000	-1.390354	0.000000	-3.263207	-0.000000
8.945500	0.000000	0.000000	0.000000	0.000000	0.000000	0.000000	0.000000	0.000000	0.000000	0.000000	0.000000	0.000000	0.000000	0.000000	0.000000	0.000000	0.000000	0.000000	0.000000	0.000000	0.000000	0.000000	0.000000	0.000000	0.000000	0.000000	0.000000	6.344244	535.458651	-16.088203	0.194813	0.000000	-1.083513	0.000000	3.824878	0.000000	1.105904	527.190457	13.230664	0.213705	0.000000	-1.390348	0.000000	-3.260472	-0.000000
8.946000	0.000000	0.000000	0.000000	0.000000	0.000000	0.000000	0.000000	0.000000	0.000000	0.000000	0.000000	0.000000	0.000000	0.000000	0.000000	0.000000	0.000000	0.000000	0.000000	0.000000	0.000000	0.000000	0.000000	0.000000	0.000000	0.000000	0.000000	6.326400	535.691965	-16.114772	0.194805	0.000000	-1.083514	0.000000	3.823759	0.000000	1.101939	527.260343	13.240882	0.213695	0.000000	-1.390342	0.000000	-3.257674	-0.000000
8.946500	0.000000	0.000000	0.000000	0.000000	0.000000	0.000000	0.000000	0.000000	0.000000	0.000000	0.000000	0.000000	0.000000	0.000000	0.000000	0.000000	0.000000	0.000000	0.000000	0.000000	0.000000	0.000000	0.000000	0.000000	0.000000	0.000000	0.000000	6.308437	535.924760	-16.141102	0.194798	0.000000	-1.083515	0.000000	3.822619	0.000000	1.098044	527.328816	13.251203	0.213686	0.000000	-1.390335	0.000000	-3.254817	-0.000000
8.947000	0.000000	0.000000	0.000000	0.000000	0.000000	0.000000	0.000000	0.000000	0.000000	0.000000	0.000000	0.000000	0.000000	0.000000	0.000000	0.000000	0.000000	0.000000	0.000000	0.000000	0.000000	0.000000	0.000000	0.000000	0.000000	0.000000	0.000000	6.290413	536.156813	-16.167173	0.194791	0.000000	-1.083516	0.000000	3.821461	0.000000	1.094221	527.395844	13.261618	0.213677	0.000000	-1.390329	0.000000	-3.251907	-0.000000
8.947500	0.000000	0.000000	0.000000	0.000000	0.000000	0.000000	0.000000	0.000000	0.000000	0.000000	0.000000	0.000000	0.000000	0.000000	0.000000	0.000000	0.000000	0.000000	0.000000	0.000000	0.000000	0.000000	0.000000	0.000000	0.000000	0.000000	0.000000	6.272382	536.387900	-16.192973	0.194784	0.000000	-1.083517	0.000000	3.820287	0.000000	1.090473	527.461402	13.272114	0.213668	0.000000	-1.390323	0.000000	-3.248946	-0.000000
